<mxfile host="Electron" agent="Mozilla/5.0 (X11; Linux x86_64) AppleWebKit/537.36 (KHTML, like Gecko) draw.io/26.0.9 Chrome/128.0.6613.186 Electron/32.2.5 Safari/537.36" version="26.0.9">
  <diagram name="Page-1" id="aHypYs9shzhN9IDzWoL8">
    <mxGraphModel dx="989" dy="562" grid="1" gridSize="10" guides="1" tooltips="1" connect="1" arrows="1" fold="1" page="1" pageScale="1" pageWidth="827" pageHeight="1169" math="0" shadow="0">
      <root>
        <mxCell id="0" />
        <mxCell id="1" parent="0" />
        <mxCell id="0HOpyCld2yhPX3aHZdJv-14" value="&amp;nbsp;Projects&lt;div&gt;&lt;br&gt;&lt;/div&gt;" style="rounded=0;whiteSpace=wrap;html=1;align=left;verticalAlign=top;shadow=0;strokeOpacity=100;fillOpacity=0;" vertex="1" parent="1">
          <mxGeometry x="480" y="90" width="150" height="230" as="geometry" />
        </mxCell>
        <mxCell id="0HOpyCld2yhPX3aHZdJv-31" value="&amp;nbsp;Project Session (Sentence Constructor)" style="rounded=0;whiteSpace=wrap;html=1;align=left;verticalAlign=top;shadow=0;strokeOpacity=100;fillOpacity=0;" vertex="1" parent="1">
          <mxGeometry x="300" y="390" width="490" height="330" as="geometry" />
        </mxCell>
        <mxCell id="0HOpyCld2yhPX3aHZdJv-1" value="Users" style="image;aspect=fixed;perimeter=ellipsePerimeter;html=1;align=center;shadow=1;dashed=0;spacingTop=3;image=img/lib/active_directory/user_accounts.svg;" vertex="1" parent="1">
          <mxGeometry x="70" y="110" width="50" height="48.5" as="geometry" />
        </mxCell>
        <mxCell id="0HOpyCld2yhPX3aHZdJv-10" style="edgeStyle=orthogonalEdgeStyle;rounded=0;orthogonalLoop=1;jettySize=auto;html=1;exitX=1;exitY=0.5;exitDx=0;exitDy=0;exitPerimeter=0;" edge="1" parent="1" source="0HOpyCld2yhPX3aHZdJv-3" target="0HOpyCld2yhPX3aHZdJv-7">
          <mxGeometry relative="1" as="geometry" />
        </mxCell>
        <mxCell id="0HOpyCld2yhPX3aHZdJv-3" value="University SSO" style="html=1;whiteSpace=wrap;strokeColor=none;fillColor=#0079D6;labelPosition=center;verticalLabelPosition=middle;verticalAlign=top;align=center;fontSize=12;outlineConnect=0;spacingTop=-6;fontColor=#FFFFFF;sketch=0;shape=mxgraph.sitemap.security;shadow=1;" vertex="1" parent="1">
          <mxGeometry x="150" y="120" width="100" height="60" as="geometry" />
        </mxCell>
        <mxCell id="0HOpyCld2yhPX3aHZdJv-4" value="&amp;nbsp;AI Portal" style="rounded=0;whiteSpace=wrap;html=1;align=left;verticalAlign=top;shadow=0;strokeOpacity=100;fillOpacity=0;" vertex="1" parent="1">
          <mxGeometry x="270" y="80" width="370" height="250" as="geometry" />
        </mxCell>
        <mxCell id="0HOpyCld2yhPX3aHZdJv-5" value="AI Project Marketplace" style="sketch=0;pointerEvents=1;shadow=1;dashed=0;html=1;strokeColor=none;fillColor=#505050;labelPosition=center;verticalLabelPosition=bottom;verticalAlign=top;outlineConnect=0;align=center;shape=mxgraph.office.concepts.folders;" vertex="1" parent="1">
          <mxGeometry x="520" y="110" width="70" height="65" as="geometry" />
        </mxCell>
        <mxCell id="0HOpyCld2yhPX3aHZdJv-16" value="" style="edgeStyle=orthogonalEdgeStyle;rounded=0;orthogonalLoop=1;jettySize=auto;html=1;" edge="1" parent="1" source="0HOpyCld2yhPX3aHZdJv-7" target="0HOpyCld2yhPX3aHZdJv-14">
          <mxGeometry relative="1" as="geometry" />
        </mxCell>
        <mxCell id="0HOpyCld2yhPX3aHZdJv-7" value="Dashboard" style="image;aspect=fixed;html=1;points=[];align=center;fontSize=12;image=img/lib/azure2/general/Dashboard.svg;shadow=1;" vertex="1" parent="1">
          <mxGeometry x="307.5" y="120" width="85" height="60" as="geometry" />
        </mxCell>
        <mxCell id="0HOpyCld2yhPX3aHZdJv-8" style="edgeStyle=orthogonalEdgeStyle;rounded=0;orthogonalLoop=1;jettySize=auto;html=1;exitX=1;exitY=0.5;exitDx=0;exitDy=0;entryX=0;entryY=0.25;entryDx=0;entryDy=0;entryPerimeter=0;" edge="1" parent="1" source="0HOpyCld2yhPX3aHZdJv-1" target="0HOpyCld2yhPX3aHZdJv-3">
          <mxGeometry relative="1" as="geometry" />
        </mxCell>
        <mxCell id="0HOpyCld2yhPX3aHZdJv-19" value="" style="edgeStyle=orthogonalEdgeStyle;rounded=0;orthogonalLoop=1;jettySize=auto;html=1;" edge="1" parent="1" source="0HOpyCld2yhPX3aHZdJv-11" target="0HOpyCld2yhPX3aHZdJv-18">
          <mxGeometry relative="1" as="geometry" />
        </mxCell>
        <mxCell id="0HOpyCld2yhPX3aHZdJv-20" value="Access&lt;br&gt;Granted" style="edgeLabel;html=1;align=center;verticalAlign=middle;resizable=0;points=[];" vertex="1" connectable="0" parent="0HOpyCld2yhPX3aHZdJv-19">
          <mxGeometry x="-0.4741" y="1" relative="1" as="geometry">
            <mxPoint x="29" y="3" as="offset" />
          </mxGeometry>
        </mxCell>
        <mxCell id="0HOpyCld2yhPX3aHZdJv-11" value="Credit&lt;br&gt;&amp;amp; Permission&lt;br&gt;Check" style="rhombus;whiteSpace=wrap;html=1;rounded=0;shadow=1;" vertex="1" parent="1">
          <mxGeometry x="700" y="165" width="80" height="80" as="geometry" />
        </mxCell>
        <mxCell id="0HOpyCld2yhPX3aHZdJv-12" value="Personal Projects" style="sketch=0;pointerEvents=1;shadow=1;dashed=0;html=1;strokeColor=none;fillColor=#505050;labelPosition=center;verticalLabelPosition=bottom;verticalAlign=top;outlineConnect=0;align=center;shape=mxgraph.office.concepts.folders;" vertex="1" parent="1">
          <mxGeometry x="520" y="215" width="70" height="65" as="geometry" />
        </mxCell>
        <mxCell id="0HOpyCld2yhPX3aHZdJv-17" value="" style="edgeStyle=orthogonalEdgeStyle;rounded=0;orthogonalLoop=1;jettySize=auto;html=1;" edge="1" parent="1" source="0HOpyCld2yhPX3aHZdJv-14" target="0HOpyCld2yhPX3aHZdJv-11">
          <mxGeometry relative="1" as="geometry" />
        </mxCell>
        <mxCell id="0HOpyCld2yhPX3aHZdJv-18" value="Project Session" style="rounded=1;whiteSpace=wrap;html=1;shadow=1;" vertex="1" parent="1">
          <mxGeometry x="690" y="280" width="100" height="50" as="geometry" />
        </mxCell>
        <mxCell id="0HOpyCld2yhPX3aHZdJv-21" value="Project&lt;br&gt;Database" style="shape=datastore;whiteSpace=wrap;html=1;shadow=1;" vertex="1" parent="1">
          <mxGeometry x="190" y="190" width="60" height="60" as="geometry" />
        </mxCell>
        <mxCell id="0HOpyCld2yhPX3aHZdJv-22" value="Session&lt;br&gt;Database" style="shape=datastore;whiteSpace=wrap;html=1;shadow=1;" vertex="1" parent="1">
          <mxGeometry x="190" y="260" width="60" height="60" as="geometry" />
        </mxCell>
        <mxCell id="0HOpyCld2yhPX3aHZdJv-25" value="" style="endArrow=classic;html=1;rounded=0;exitX=1;exitY=0.5;exitDx=0;exitDy=0;" edge="1" parent="1" source="0HOpyCld2yhPX3aHZdJv-21">
          <mxGeometry width="50" height="50" relative="1" as="geometry">
            <mxPoint x="450" y="220" as="sourcePoint" />
            <mxPoint x="270" y="220" as="targetPoint" />
          </mxGeometry>
        </mxCell>
        <mxCell id="0HOpyCld2yhPX3aHZdJv-26" value="" style="endArrow=classic;html=1;rounded=0;exitX=1;exitY=0.5;exitDx=0;exitDy=0;" edge="1" parent="1">
          <mxGeometry width="50" height="50" relative="1" as="geometry">
            <mxPoint x="250" y="289.76" as="sourcePoint" />
            <mxPoint x="270" y="289.76" as="targetPoint" />
          </mxGeometry>
        </mxCell>
        <mxCell id="0HOpyCld2yhPX3aHZdJv-27" value="Conceptual" style="text;html=1;align=center;verticalAlign=middle;resizable=0;points=[];autosize=1;strokeColor=none;fillColor=none;fontSize=28;" vertex="1" parent="1">
          <mxGeometry x="60" y="30" width="170" height="50" as="geometry" />
        </mxCell>
        <mxCell id="0HOpyCld2yhPX3aHZdJv-32" value="" style="edgeStyle=orthogonalEdgeStyle;rounded=0;orthogonalLoop=1;jettySize=auto;html=1;" edge="1" parent="1" source="0HOpyCld2yhPX3aHZdJv-28" target="0HOpyCld2yhPX3aHZdJv-30">
          <mxGeometry relative="1" as="geometry" />
        </mxCell>
        <mxCell id="0HOpyCld2yhPX3aHZdJv-33" value="Query" style="edgeLabel;html=1;align=center;verticalAlign=middle;resizable=0;points=[];" vertex="1" connectable="0" parent="0HOpyCld2yhPX3aHZdJv-32">
          <mxGeometry x="-0.1935" y="2" relative="1" as="geometry">
            <mxPoint y="-13" as="offset" />
          </mxGeometry>
        </mxCell>
        <mxCell id="0HOpyCld2yhPX3aHZdJv-28" value="User" style="html=1;verticalLabelPosition=bottom;align=center;labelBackgroundColor=#ffffff;verticalAlign=top;strokeWidth=2;strokeColor=#0080F0;shadow=1;dashed=0;shape=mxgraph.ios7.icons.user;" vertex="1" parent="1">
          <mxGeometry x="110" y="530" width="30" height="30" as="geometry" />
        </mxCell>
        <mxCell id="0HOpyCld2yhPX3aHZdJv-44" value="" style="edgeStyle=orthogonalEdgeStyle;rounded=0;orthogonalLoop=1;jettySize=auto;html=1;" edge="1" parent="1" source="0HOpyCld2yhPX3aHZdJv-29" target="0HOpyCld2yhPX3aHZdJv-43">
          <mxGeometry relative="1" as="geometry" />
        </mxCell>
        <mxCell id="0HOpyCld2yhPX3aHZdJv-29" value="RAG" style="rounded=1;whiteSpace=wrap;html=1;shadow=1;" vertex="1" parent="1">
          <mxGeometry x="452.5" y="520" width="80" height="50" as="geometry" />
        </mxCell>
        <mxCell id="0HOpyCld2yhPX3aHZdJv-46" value="" style="edgeStyle=orthogonalEdgeStyle;rounded=0;orthogonalLoop=1;jettySize=auto;html=1;" edge="1" parent="1" source="0HOpyCld2yhPX3aHZdJv-30" target="0HOpyCld2yhPX3aHZdJv-45">
          <mxGeometry relative="1" as="geometry" />
        </mxCell>
        <mxCell id="0HOpyCld2yhPX3aHZdJv-30" value="Credit&lt;br&gt;Monitor" style="rounded=1;whiteSpace=wrap;html=1;shadow=1;glass=0;" vertex="1" parent="1">
          <mxGeometry x="180" y="520" width="90" height="50" as="geometry" />
        </mxCell>
        <mxCell id="0HOpyCld2yhPX3aHZdJv-34" value="Vector&lt;br&gt;Database" style="shape=cylinder3;whiteSpace=wrap;html=1;boundedLbl=1;backgroundOutline=1;size=15;shadow=1;gradientColor=none;fontSize=12;" vertex="1" parent="1">
          <mxGeometry x="430" y="420" width="62.5" height="70" as="geometry" />
        </mxCell>
        <mxCell id="0HOpyCld2yhPX3aHZdJv-36" value="Data API" style="image;aspect=fixed;html=1;points=[];align=center;fontSize=12;image=img/lib/azure2/compute/Cloud_Services_Classic.svg;shadow=1;" vertex="1" parent="1">
          <mxGeometry x="520" y="420" width="72" height="52" as="geometry" />
        </mxCell>
        <mxCell id="0HOpyCld2yhPX3aHZdJv-40" value="" style="endArrow=classic;html=1;rounded=0;exitX=0.5;exitY=0;exitDx=0;exitDy=0;entryX=0.855;entryY=1;entryDx=0;entryDy=-4.35;entryPerimeter=0;" edge="1" parent="1" source="0HOpyCld2yhPX3aHZdJv-29" target="0HOpyCld2yhPX3aHZdJv-34">
          <mxGeometry width="50" height="50" relative="1" as="geometry">
            <mxPoint x="460" y="490" as="sourcePoint" />
            <mxPoint x="510" y="440" as="targetPoint" />
          </mxGeometry>
        </mxCell>
        <mxCell id="0HOpyCld2yhPX3aHZdJv-41" value="" style="endArrow=classic;html=1;rounded=0;" edge="1" parent="1" target="0HOpyCld2yhPX3aHZdJv-36">
          <mxGeometry width="50" height="50" relative="1" as="geometry">
            <mxPoint x="492.5" y="520" as="sourcePoint" />
            <mxPoint x="542.5" y="470" as="targetPoint" />
          </mxGeometry>
        </mxCell>
        <mxCell id="0HOpyCld2yhPX3aHZdJv-49" value="" style="edgeStyle=orthogonalEdgeStyle;rounded=0;orthogonalLoop=1;jettySize=auto;html=1;" edge="1" parent="1" source="0HOpyCld2yhPX3aHZdJv-43" target="0HOpyCld2yhPX3aHZdJv-48">
          <mxGeometry relative="1" as="geometry" />
        </mxCell>
        <mxCell id="0HOpyCld2yhPX3aHZdJv-43" value="Prompt&lt;br&gt;Cache" style="rounded=1;whiteSpace=wrap;html=1;fillColor=#dae8fc;strokeColor=#6c8ebf;shadow=1;" vertex="1" parent="1">
          <mxGeometry x="565" y="520" width="85" height="50" as="geometry" />
        </mxCell>
        <mxCell id="0HOpyCld2yhPX3aHZdJv-47" value="" style="edgeStyle=orthogonalEdgeStyle;rounded=0;orthogonalLoop=1;jettySize=auto;html=1;" edge="1" parent="1" source="0HOpyCld2yhPX3aHZdJv-45" target="0HOpyCld2yhPX3aHZdJv-29">
          <mxGeometry relative="1" as="geometry" />
        </mxCell>
        <mxCell id="0HOpyCld2yhPX3aHZdJv-45" value="Query Cache" style="rounded=1;whiteSpace=wrap;html=1;fillColor=#dae8fc;strokeColor=#6c8ebf;shadow=1;" vertex="1" parent="1">
          <mxGeometry x="324" y="520" width="90" height="50" as="geometry" />
        </mxCell>
        <mxCell id="0HOpyCld2yhPX3aHZdJv-53" value="" style="edgeStyle=orthogonalEdgeStyle;rounded=0;orthogonalLoop=1;jettySize=auto;html=1;" edge="1" parent="1" source="0HOpyCld2yhPX3aHZdJv-48" target="0HOpyCld2yhPX3aHZdJv-51">
          <mxGeometry relative="1" as="geometry" />
        </mxCell>
        <mxCell id="0HOpyCld2yhPX3aHZdJv-48" value="Input Guardrails" style="rounded=1;whiteSpace=wrap;html=1;shadow=1;" vertex="1" parent="1">
          <mxGeometry x="670" y="530" width="100" height="30" as="geometry" />
        </mxCell>
        <mxCell id="0HOpyCld2yhPX3aHZdJv-55" value="" style="edgeStyle=orthogonalEdgeStyle;rounded=0;orthogonalLoop=1;jettySize=auto;html=1;" edge="1" parent="1" source="0HOpyCld2yhPX3aHZdJv-51" target="0HOpyCld2yhPX3aHZdJv-54">
          <mxGeometry relative="1" as="geometry">
            <Array as="points">
              <mxPoint x="670" y="646" />
              <mxPoint x="670" y="646" />
            </Array>
          </mxGeometry>
        </mxCell>
        <mxCell id="0HOpyCld2yhPX3aHZdJv-51" value="AI Model" style="sketch=0;outlineConnect=0;fontColor=#232F3E;gradientColor=none;fillColor=#01A88D;strokeColor=none;dashed=0;verticalLabelPosition=bottom;verticalAlign=top;align=center;html=1;fontSize=12;fontStyle=0;aspect=fixed;pointerEvents=1;shape=mxgraph.aws4.sagemaker_model;shadow=1;" vertex="1" parent="1">
          <mxGeometry x="681" y="585" width="78" height="78" as="geometry" />
        </mxCell>
        <mxCell id="0HOpyCld2yhPX3aHZdJv-56" value="" style="edgeStyle=orthogonalEdgeStyle;rounded=0;orthogonalLoop=1;jettySize=auto;html=1;fillColor=#fff2cc;strokeColor=#d6b656;dashed=1;" edge="1" parent="1" source="0HOpyCld2yhPX3aHZdJv-54" target="0HOpyCld2yhPX3aHZdJv-43">
          <mxGeometry relative="1" as="geometry">
            <Array as="points">
              <mxPoint x="607" y="610" />
              <mxPoint x="607" y="610" />
            </Array>
          </mxGeometry>
        </mxCell>
        <mxCell id="0HOpyCld2yhPX3aHZdJv-57" value="Cache&lt;br&gt;Update" style="edgeLabel;html=1;align=center;verticalAlign=middle;resizable=0;points=[];" vertex="1" connectable="0" parent="0HOpyCld2yhPX3aHZdJv-56">
          <mxGeometry x="-0.3816" y="-2" relative="1" as="geometry">
            <mxPoint x="21" y="-11" as="offset" />
          </mxGeometry>
        </mxCell>
        <mxCell id="0HOpyCld2yhPX3aHZdJv-62" style="edgeStyle=orthogonalEdgeStyle;rounded=0;orthogonalLoop=1;jettySize=auto;html=1;exitX=0;exitY=0.25;exitDx=0;exitDy=0;entryX=0.5;entryY=1;entryDx=0;entryDy=0;fillColor=#f8cecc;strokeColor=#b85450;dashed=1;dashPattern=1 2;" edge="1" parent="1" source="0HOpyCld2yhPX3aHZdJv-54" target="0HOpyCld2yhPX3aHZdJv-30">
          <mxGeometry relative="1" as="geometry" />
        </mxCell>
        <mxCell id="0HOpyCld2yhPX3aHZdJv-63" value="Credit&lt;br&gt;Update" style="edgeLabel;html=1;align=center;verticalAlign=middle;resizable=0;points=[];" vertex="1" connectable="0" parent="0HOpyCld2yhPX3aHZdJv-62">
          <mxGeometry x="0.4867" y="-2" relative="1" as="geometry">
            <mxPoint y="-16" as="offset" />
          </mxGeometry>
        </mxCell>
        <mxCell id="0HOpyCld2yhPX3aHZdJv-54" value="Output Guardrails" style="rounded=1;whiteSpace=wrap;html=1;shadow=1;" vertex="1" parent="1">
          <mxGeometry x="520" y="630" width="120" height="33" as="geometry" />
        </mxCell>
        <mxCell id="0HOpyCld2yhPX3aHZdJv-58" value="" style="edgeStyle=orthogonalEdgeStyle;rounded=0;orthogonalLoop=1;jettySize=auto;html=1;fillColor=#fff2cc;strokeColor=#d6b656;dashed=1;exitX=0.25;exitY=0;exitDx=0;exitDy=0;entryX=0.5;entryY=1;entryDx=0;entryDy=0;" edge="1" parent="1" source="0HOpyCld2yhPX3aHZdJv-54" target="0HOpyCld2yhPX3aHZdJv-45">
          <mxGeometry relative="1" as="geometry">
            <mxPoint x="480" y="645" as="sourcePoint" />
            <mxPoint x="480" y="585" as="targetPoint" />
            <Array as="points">
              <mxPoint x="550" y="610" />
              <mxPoint x="369" y="610" />
            </Array>
          </mxGeometry>
        </mxCell>
        <mxCell id="0HOpyCld2yhPX3aHZdJv-59" value="Cache&lt;br&gt;Update" style="edgeLabel;html=1;align=center;verticalAlign=middle;resizable=0;points=[];" vertex="1" connectable="0" parent="0HOpyCld2yhPX3aHZdJv-58">
          <mxGeometry x="-0.3816" y="-2" relative="1" as="geometry">
            <mxPoint x="-43" y="-18" as="offset" />
          </mxGeometry>
        </mxCell>
        <mxCell id="0HOpyCld2yhPX3aHZdJv-60" value="" style="endArrow=classic;html=1;rounded=0;exitX=0;exitY=0.5;exitDx=0;exitDy=0;" edge="1" parent="1" source="0HOpyCld2yhPX3aHZdJv-54">
          <mxGeometry width="50" height="50" relative="1" as="geometry">
            <mxPoint x="370" y="500" as="sourcePoint" />
            <mxPoint x="130" y="580" as="targetPoint" />
            <Array as="points">
              <mxPoint x="130" y="647" />
            </Array>
          </mxGeometry>
        </mxCell>
        <mxCell id="0HOpyCld2yhPX3aHZdJv-61" value="Response" style="edgeLabel;html=1;align=center;verticalAlign=middle;resizable=0;points=[];" vertex="1" connectable="0" parent="0HOpyCld2yhPX3aHZdJv-60">
          <mxGeometry x="0.4866" relative="1" as="geometry">
            <mxPoint x="70" y="13" as="offset" />
          </mxGeometry>
        </mxCell>
      </root>
    </mxGraphModel>
  </diagram>
</mxfile>
